<svg version="1.1" id="Layer_1" xmlns="http://www.w3.org/2000/svg" xmlns:xlink="http://www.w3.org/1999/xlink" x="0px" y="0px" viewBox="0 0 33 32.8" style="enable-background:new 0 0 33 32.8;" xml:space="preserve">
<style type="text/css" stroke="none" fill="#000000" stroke-width="1px">
	.st0{fill:#2b303f;}
</style>
<g stroke="none" fill="#000000" stroke-width="1px">
	<path class="st0" d="M16.8,0C7.4-0.2-0.2,7.4,0,16.8c0.2,8.7,7.3,15.8,16,16C25.4,33,33,25.4,32.8,16C32.6,7.3,25.5,0.2,16.8,0z
		 M19.1,1.5C16.9,2.8,19.4,1.3,7.8,8C6.5,6.8,4.4,7.8,4.4,9.5c0,1.1,0.9,2,2,2c1.2,0,2.2-1.1,2-2.4C20.4,2.3,17.9,3.7,21,2
		c3.4,1.1,6.3,3.4,8.2,6.4c-4.5,2.6-6.5,3.7-11,6.3c-0.4-0.3-0.9-0.5-1.4-0.5c-0.8,0-1.6,0.6-1.8,1.4c-0.1,0.3-0.1,0.7-0.1,1
		C2.4,23.8,4.4,22.6,3,23.4c-0.7-1.3-1.2-2.7-1.5-4.2c3.5-2,1.2-0.7,18.4-10.6c1.3,1.1,3.4,0.2,3.4-1.5c0-1.1-0.9-2-2-2
		c-1.3,0-2.2,1.2-2,2.4C0.4,18.3,5.1,15.6,1.3,17.8C0.5,7.8,9.3-0.3,19.1,1.5z M5.4,9.4c0.1-0.7,0.8-1.2,1.5-0.9
		c0.4,0.2,0.7,0.7,0.6,1.2c-0.1,0.6-0.8,1.1-1.4,0.8C5.7,10.4,5.4,10,5.4,9.4z M15.7,16.2c0-0.1,0-0.1,0-0.2c0.1-0.5,0.5-0.9,1-0.9
		c0.1,0,0.3,0,0.4,0.1c0.4,0.2,0.7,0.5,0.7,1c0,0,0,0.1,0,0.1c-0.1,0.5-0.5,0.9-1,0.9c-0.1,0-0.3,0-0.4-0.1
		C16,17,15.7,16.7,15.7,16.2z M22.3,7.2c-0.1,0.7-0.8,1.1-1.4,0.8c-0.4-0.2-0.7-0.6-0.7-1.1c0.1-0.7,0.8-1.1,1.5-0.8
		C22.1,6.3,22.4,6.7,22.3,7.2z M14.1,31.3c2.3-1.3,0.3-0.2,10.8-6.2c1.4,1.2,3.6,0,3.3-1.9c-0.1-0.5-0.3-0.8-0.6-1.1
		c-1.5-1.3-3.7,0-3.3,1.9c-11.4,6.5-9,5.2-12,6.9c-3.6-1-6.6-3.3-8.5-6.4c1.6-0.9,9.3-5.3,11.8-6.8c0.4,0.3,0.8,0.5,1.3,0.5
		c1.3,0,2.2-1.1,2-2.4c11.3-6.5,9.6-5.5,11-6.3c0.7,1.3,1.2,2.7,1.4,4.2c-3.9,2.3-13.9,8-18,10.3c-1.3-1.2-3.4-0.2-3.4,1.5
		c0,0.6,0.2,1.1,0.7,1.5c1.4,1.2,3.7,0,3.3-1.9c17.2-9.9,13.9-8,17.5-10.1C32.3,24.9,23.7,32.8,14.1,31.3z M27.3,23.8
		c-0.1,0.6-0.8,1-1.4,0.8c-0.4-0.2-0.7-0.6-0.7-1.1c0.1-0.7,0.8-1.2,1.5-0.9C27.1,22.8,27.4,23.2,27.3,23.8z M10.9,25.4
		c0.1-0.7,0.8-1.1,1.5-0.8c0.4,0.2,0.7,0.6,0.6,1.1c-0.1,0.7-0.8,1.1-1.4,0.8C11.1,26.4,10.8,26,10.9,25.4z" stroke="none" fill="#2b303f" stroke-width="1px"></path>
</g>
</svg>